<?xml version="1.0" encoding="UTF-8" standalone="no"?>
<!-- Created with Inkscape (http://www.inkscape.org/) -->

<svg
   xmlns:dc="http://purl.org/dc/elements/1.1/"
   xmlns:cc="http://creativecommons.org/ns#"
   xmlns:rdf="http://www.w3.org/1999/02/22-rdf-syntax-ns#"
   xmlns:svg="http://www.w3.org/2000/svg"
   xmlns="http://www.w3.org/2000/svg"
   xmlns:sodipodi="http://sodipodi.sourceforge.net/DTD/sodipodi-0.dtd"
   xmlns:inkscape="http://www.inkscape.org/namespaces/inkscape"
   width="744.09448819"
   height="1052.3622047"
   id="svg2"
   version="1.1"
   inkscape:version="0.48.0 r9654"
   sodipodi:docname="glass.svg"
   inkscape:export-filename="/home/thp/src/gpodder/data/ui/qml/podcastList/glass.png"
   inkscape:export-xdpi="90"
   inkscape:export-ydpi="90">
  <defs
     id="defs4" />
  <sodipodi:namedview
     id="base"
     pagecolor="#ffffff"
     bordercolor="#666666"
     borderopacity="1.0"
     inkscape:pageopacity="0.0"
     inkscape:pageshadow="2"
     inkscape:zoom="8"
     inkscape:cx="236.16626"
     inkscape:cy="592.06644"
     inkscape:document-units="px"
     inkscape:current-layer="layer1"
     showgrid="false"
     inkscape:window-width="1187"
     inkscape:window-height="913"
     inkscape:window-x="297"
     inkscape:window-y="89"
     inkscape:window-maximized="0" />
  <metadata
     id="metadata7">
    <rdf:RDF>
      <cc:Work
         rdf:about="">
        <dc:format>image/svg+xml</dc:format>
        <dc:type
           rdf:resource="http://purl.org/dc/dcmitype/StillImage" />
        <dc:title></dc:title>
      </cc:Work>
    </rdf:RDF>
  </metadata>
  <g
     inkscape:label="Layer 1"
     inkscape:groupmode="layer"
     id="layer1">
    <path
       style="fill:#000000"
       d=""
       id="path3766"
       inkscape:connector-curvature="0" />
    <path
       style="fill:#ffffff;fill-opacity:1;stroke:none"
       d="m 240.13728,434.88417 c -6.30912,0 -11.41853,5.10942 -11.41853,11.41853 0,6.30911 5.10941,11.47019 11.41853,11.47019 2.29856,0 4.45589,-0.68786 6.25177,-1.86003 -0.007,-0.0116 0.0599,0.11458 0.0516,0.10333 -0.008,-0.0116 0.0607,0.0622 0.0516,0.0516 -0.008,-0.01 0.0455,0.0445 0.0516,0.0516 7e-4,8.1e-4 9.9e-4,0.0526 0,0.0516 l 9.35183,9.30015 c -0.0116,-0.0116 0.0636,0.11326 0.0516,0.10334 -0.0116,-0.01 0.11623,0.0604 0.10334,0.0516 -0.0132,-0.008 0.0653,0.059 0.0516,0.0516 -0.0132,-0.007 0.11772,0.0577 0.10334,0.0516 -0.0149,-0.007 0.11821,0.005 0.10333,0 -0.0149,-0.005 0.11855,0.0547 0.10334,0.0516 -0.0149,-0.003 0.11887,0.002 0.10333,0 -0.0149,-0.002 0.11888,0 0.10334,0 -0.0149,0 0.11887,-0.002 0.10333,0 -0.0149,0.002 0.11855,-0.003 0.10334,0 -0.0149,0.003 0.11821,-0.0562 0.10333,-0.0516 -0.0149,0.005 0.11772,-0.007 0.10334,0 -0.0149,0.007 0.11705,-0.059 0.10333,-0.0516 -0.0132,0.007 0.11623,-0.0604 0.10334,-0.0516 -0.0132,0.008 0.1154,-0.0615 0.10333,-0.0516 -0.0116,0.01 0.0627,-0.11425 0.0516,-0.10334 l 2.01503,-2.01503 c -0.0116,0.0116 0.0615,-0.0636 0.0516,-0.0516 -0.01,0.0116 0.0603,-0.11624 0.0516,-0.10334 -0.008,0.0132 0.059,-0.11706 0.0516,-0.10333 -0.007,0.0132 0.10929,-0.066 0.10334,-0.0516 -0.007,0.0149 0.005,-0.11821 0,-0.10333 -0.005,0.0149 0.0547,-0.11855 0.0516,-0.10334 -0.003,0.0149 0.002,-0.11871 0,-0.10333 -0.002,0.0149 0,-0.11888 0,-0.10334 0,0.0149 -0.002,-0.11871 0,-0.10333 0.002,0.0149 -0.003,-0.17025 0,-0.15492 0.003,0.0149 -0.0562,-0.0665 -0.0516,-0.0516 0.005,0.0149 -0.007,-0.11772 0,-0.10333 0.007,0.0149 -0.11061,-0.11706 -0.10334,-0.10334 0.007,0.0132 -0.0603,-0.11623 -0.0516,-0.10333 0.008,0.0132 -0.0615,-0.11541 -0.0516,-0.10334 0.01,0.0116 -0.0627,-0.0627 -0.0516,-0.0516 l -9.35133,-9.35199 c 0.0116,0.0116 -0.0637,-0.0615 -0.0516,-0.0516 0.0116,0.01 -0.11623,-0.0604 -0.10334,-0.0516 0.0132,0.008 -0.11706,-0.059 -0.10333,-0.0516 1.13343,-1.77564 1.80836,-3.89151 1.80836,-6.14843 0,-6.30912 -5.16108,-11.41853 -11.47019,-11.41853 z m 0,3.6684 c 4.29128,0 7.75013,3.45884 7.75013,7.75013 0,4.29128 -3.45885,7.75013 -7.75013,7.75013 -4.29129,0 -7.75013,-3.45885 -7.75013,-7.75013 0,-4.29129 3.45884,-7.75013 7.75013,-7.75013 z"
       id="path3784"
       inkscape:connector-curvature="0"
       inkscape:export-xdpi="90"
       inkscape:export-ydpi="90" />
  </g>
</svg>
