<?xml version="1.0" encoding="UTF-8" standalone="no"?>
<!-- Created with Inkscape (http://www.inkscape.org/) -->
<svg
   xmlns:dc="http://purl.org/dc/elements/1.1/"
   xmlns:cc="http://web.resource.org/cc/"
   xmlns:rdf="http://www.w3.org/1999/02/22-rdf-syntax-ns#"
   xmlns:svg="http://www.w3.org/2000/svg"
   xmlns="http://www.w3.org/2000/svg"
   xmlns:xlink="http://www.w3.org/1999/xlink"
   xmlns:sodipodi="http://sodipodi.sourceforge.net/DTD/sodipodi-0.dtd"
   xmlns:inkscape="http://www.inkscape.org/namespaces/inkscape"
   width="48"
   height="48"
   id="svg6590"
   sodipodi:version="0.32"
   inkscape:version="0.44.1"
   version="1.0"
   sodipodi:docbase="/home/thp/src/gpodder/data"
   sodipodi:docname="gpodder.png.svg">
  <defs
     id="defs6592">
    <linearGradient
       id="linearGradient10416">
      <stop
         style="stop-color:black;stop-opacity:0.79381442;"
         offset="0"
         id="stop10418" />
      <stop
         style="stop-color:black;stop-opacity:0;"
         offset="1"
         id="stop10420" />
    </linearGradient>
    <radialGradient
       inkscape:collect="always"
       xlink:href="#linearGradient10416"
       id="radialGradient6431"
       gradientUnits="userSpaceOnUse"
       gradientTransform="matrix(1,0,0,0.135603,0,33.52458)"
       cx="36.641891"
       cy="38.783783"
       fx="36.641891"
       fy="38.783783"
       r="18.655405" />
    <linearGradient
       inkscape:collect="always"
       xlink:href="#linearGradient6569"
       id="linearGradient6404"
       gradientUnits="userSpaceOnUse"
       gradientTransform="matrix(0.967056,3.624187e-7,-3.624187e-7,0.967056,-194.4896,682.116)"
       x1="-11.65197"
       y1="37.298004"
       x2="-0.57569283"
       y2="37.298004" />
    <linearGradient
       inkscape:collect="always"
       xlink:href="#linearGradient6569"
       id="linearGradient6406"
       gradientUnits="userSpaceOnUse"
       gradientTransform="translate(-17.49662,-4.077645)"
       x1="-16.071386"
       y1="42.178146"
       x2="-11.535848"
       y2="45.960064" />
    <linearGradient
       inkscape:collect="always"
       xlink:href="#linearGradient4987"
       id="linearGradient6408"
       gradientUnits="userSpaceOnUse"
       gradientTransform="matrix(0.2439,-0.758928,0.734045,0.235903,585.9392,397.4717)"
       x1="-15.838902"
       y1="39.956676"
       x2="-8.8692646"
       y2="43.916161" />
    <linearGradient
       id="linearGradient6569">
      <stop
         style="stop-color:white;stop-opacity:1;"
         offset="0"
         id="stop6571" />
      <stop
         style="stop-color:#c8c8c8;stop-opacity:1;"
         offset="1"
         id="stop6573" />
    </linearGradient>
    <linearGradient
       inkscape:collect="always"
       xlink:href="#linearGradient6569"
       id="linearGradient6410"
       gradientUnits="userSpaceOnUse"
       gradientTransform="matrix(0.232184,-0.722473,0.722473,0.232184,593.7366,416.4271)"
       x1="-16.071386"
       y1="42.178146"
       x2="-11.535848"
       y2="45.960064" />
    <linearGradient
       inkscape:collect="always"
       xlink:href="#linearGradient4987"
       id="linearGradient6412"
       gradientUnits="userSpaceOnUse"
       gradientTransform="matrix(0.876457,4.087532e-7,-4.087532e-7,0.876457,-237.653,659.6141)"
       x1="36.81126"
       y1="66.551888"
       x2="47.887478"
       y2="66.551888" />
    <linearGradient
       inkscape:collect="always"
       xlink:href="#linearGradient4987"
       id="linearGradient6414"
       gradientUnits="userSpaceOnUse"
       x1="39.53125"
       y1="24.229225"
       x2="41.011925"
       y2="25.125" />
    <linearGradient
       inkscape:collect="always"
       id="linearGradient4987">
      <stop
         style="stop-color:white;stop-opacity:1;"
         offset="0"
         id="stop4989" />
      <stop
         style="stop-color:white;stop-opacity:0;"
         offset="1"
         id="stop4991" />
    </linearGradient>
    <linearGradient
       inkscape:collect="always"
       xlink:href="#linearGradient4987"
       id="linearGradient6416"
       gradientUnits="userSpaceOnUse"
       x1="35.974056"
       y1="24.223534"
       x2="37.680836"
       y2="26.079689" />
    <radialGradient
       inkscape:collect="always"
       xlink:href="#linearGradient10416"
       id="radialGradient6655"
       gradientUnits="userSpaceOnUse"
       gradientTransform="matrix(1,0,0,0.135603,0,33.52458)"
       cx="36.641891"
       cy="38.783783"
       fx="36.641891"
       fy="38.783783"
       r="18.655405" />
    <linearGradient
       inkscape:collect="always"
       xlink:href="#linearGradient6569"
       id="linearGradient6657"
       gradientUnits="userSpaceOnUse"
       gradientTransform="matrix(0.967056,3.624187e-7,-3.624187e-7,0.967056,-194.4896,682.116)"
       x1="-11.65197"
       y1="37.298004"
       x2="-0.57569283"
       y2="37.298004" />
    <linearGradient
       inkscape:collect="always"
       xlink:href="#linearGradient6569"
       id="linearGradient6659"
       gradientUnits="userSpaceOnUse"
       gradientTransform="translate(-17.49662,-4.077645)"
       x1="-16.071386"
       y1="42.178146"
       x2="-11.535848"
       y2="45.960064" />
    <linearGradient
       inkscape:collect="always"
       xlink:href="#linearGradient4987"
       id="linearGradient6661"
       gradientUnits="userSpaceOnUse"
       gradientTransform="matrix(0.2439,-0.758928,0.734045,0.235903,585.9392,397.4717)"
       x1="-15.838902"
       y1="39.956676"
       x2="-8.8692646"
       y2="43.916161" />
    <linearGradient
       inkscape:collect="always"
       xlink:href="#linearGradient6569"
       id="linearGradient6663"
       gradientUnits="userSpaceOnUse"
       gradientTransform="matrix(0.232184,-0.722473,0.722473,0.232184,593.7366,416.4271)"
       x1="-16.071386"
       y1="42.178146"
       x2="-11.535848"
       y2="45.960064" />
    <linearGradient
       inkscape:collect="always"
       xlink:href="#linearGradient4987"
       id="linearGradient6665"
       gradientUnits="userSpaceOnUse"
       gradientTransform="matrix(0.876457,4.087532e-7,-4.087532e-7,0.876457,-237.653,659.6141)"
       x1="36.81126"
       y1="66.551888"
       x2="47.887478"
       y2="66.551888" />
    <linearGradient
       inkscape:collect="always"
       xlink:href="#linearGradient4987"
       id="linearGradient6667"
       gradientUnits="userSpaceOnUse"
       x1="39.53125"
       y1="24.229225"
       x2="41.011925"
       y2="25.125" />
    <linearGradient
       inkscape:collect="always"
       xlink:href="#linearGradient4987"
       id="linearGradient6669"
       gradientUnits="userSpaceOnUse"
       x1="35.974056"
       y1="24.223534"
       x2="37.680836"
       y2="26.079689" />
  </defs>
  <sodipodi:namedview
     id="base"
     pagecolor="#ffffff"
     bordercolor="#666666"
     borderopacity="1.0"
     gridtolerance="10000"
     guidetolerance="10"
     objecttolerance="10"
     inkscape:pageopacity="0.0"
     inkscape:pageshadow="2"
     inkscape:zoom="2.8"
     inkscape:cx="17.857143"
     inkscape:cy="34.285714"
     inkscape:document-units="px"
     inkscape:current-layer="layer1"
     width="48px"
     height="48px"
     inkscape:window-width="908"
     inkscape:window-height="622"
     inkscape:window-x="3"
     inkscape:window-y="150" />
  <metadata
     id="metadata6595">
    <rdf:RDF>
      <cc:Work
         rdf:about="">
        <dc:format>image/svg+xml</dc:format>
        <dc:type
           rdf:resource="http://purl.org/dc/dcmitype/StillImage" />
      </cc:Work>
    </rdf:RDF>
  </metadata>
  <g
     inkscape:label="Layer 1"
     inkscape:groupmode="layer"
     id="layer1"
     transform="translate(-603.656,-388.9433)">
    <g
       id="g6634"
       transform="translate(1.941734,0.581133)">
      <path
         transform="matrix(1.182408,0,0,1.170609,582.3886,386.2042)"
         d="M 55.297297 38.783783 A 18.655405 3.5675676 0 1 1  17.986486,38.783783 A 18.655405 3.5675676 0 1 1  55.297297 38.783783 z"
         sodipodi:ry="3.5675676"
         sodipodi:rx="18.655405"
         sodipodi:cy="38.783783"
         sodipodi:cx="36.641891"
         id="path6429"
         style="opacity:0.7;color:black;fill:url(#radialGradient6655);fill-opacity:1;fill-rule:nonzero;stroke:none;stroke-width:0.1;stroke-linecap:butt;stroke-linejoin:miter;marker:none;marker-start:none;marker-mid:none;marker-end:none;stroke-miterlimit:4;stroke-dasharray:none;stroke-dashoffset:0;stroke-opacity:1;visibility:visible;display:inline;overflow:visible"
         sodipodi:type="arc" />
      <path
         sodipodi:nodetypes="csszcssssss"
         id="path6372"
         d="M 625.13748,423.96835 C 619.45574,428.49295 615.77072,422.96923 613.74055,418.90887 C 611.71036,414.84851 608.15755,411.04192 606.38114,414.84851 C 604.60473,418.6551 606.43612,432.26107 625.66785,433.37391 C 644.89959,434.48674 647.76864,419.03299 643.40683,416.88325 C 637.84894,421.38727 640.94896,420.91623 633.53709,424.00714 C 631.19486,424.98389 632.77348,403.17497 631.25084,397.59198 C 629.72821,392.00898 629.72821,389.21748 625.1603,389.47125 C 620.5924,389.72503 623.45509,397.22821 621.60748,403.42874 C 618.26737,414.63809 622.76529,410.7311 625.68839,412.24461 C 628.72025,413.81443 629.33231,420.62784 625.13748,423.96835 z "
         style="fill:#8ae234;fill-rule:evenodd;stroke:#3a7403;stroke-width:1.02421761;stroke-linecap:butt;stroke-linejoin:round;stroke-miterlimit:4;stroke-dasharray:none;stroke-opacity:1" />
      <path
         transform="matrix(0.9375,0,0,0.9375,759.6753,368.7894)"
         d="M -143.40625,23.25 C -144.29156,23.299184 -144.46306,23.502049 -144.75,24.09375 C -145.03694,24.685451 -145.23425,25.78153 -145.28125,27.15625 C -145.37526,29.905691 -145.05391,33.6867 -146.125,37.28125 C -147.00003,40.217807 -147.34338,42.124734 -147.34375,43.21875 C -147.34412,44.312766 -147.17172,44.370863 -147,44.46875 C -146.82828,44.566637 -146.22645,44.66363 -145.375,44.6875 C -144.52355,44.71137 -143.42192,44.723002 -142.34375,45.28125 C -140.12774,46.428643 -139.13246,49.092986 -139.125,51.875 C -139.11754,54.657014 -140.1805,57.735055 -142.75,59.78125 C -144.40706,61.100839 -146.04029,61.768604 -147.59375,61.84375 C -149.14721,61.918896 -150.55098,61.378825 -151.71875,60.5625 C -154.05429,58.92985 -155.60316,56.231178 -156.71875,54 C -157.74389,51.949721 -159.22081,49.960507 -160.375,49.125 C -160.95209,48.707247 -161.36766,48.620118 -161.5625,48.65625 C -161.75734,48.692382 -162.02961,48.817903 -162.40625,49.625 C -162.7312,50.321327 -162.99633,51.850615 -162.78125,53.625 C -162.56617,55.399385 -161.92298,57.430807 -160.625,59.40625 C -158.02903,63.357136 -152.8532,67.110116 -142.875,67.6875 C -132.94023,68.262372 -127.56005,64.62059 -125.0625,60.75 C -123.81372,58.814705 -123.30275,56.787262 -123.34375,55.21875 C -123.37178,54.146566 -123.69504,53.489021 -124.0625,53 C -125.831,54.559864 -126.85964,55.688993 -127.71875,56.53125 C -128.7609,57.552954 -130.1062,58.337108 -134.09375,60 C -134.60446,60.212977 -135.40497,60.063173 -135.78125,59.71875 C -136.15753,59.374327 -136.30513,59.026201 -136.4375,58.65625 C -136.70225,57.916348 -136.85494,57.013657 -136.96875,55.90625 C -137.19636,53.691435 -137.26536,50.69268 -137.3125,47.46875 C -137.35964,44.24482 -137.36031,40.787625 -137.46875,37.8125 C -137.57719,34.837375 -137.81617,32.278215 -138.15625,31.03125 C -138.98208,28.003175 -139.42793,25.770603 -140.0625,24.625 C -140.37978,24.052199 -140.69438,23.780133 -141.15625,23.5625 C -141.61812,23.344867 -142.30929,23.189058 -143.40625,23.25 z "
         id="path6420"
         style="opacity:0.4;fill:none;fill-rule:evenodd;stroke:white;stroke-width:1.09249878;stroke-linecap:butt;stroke-linejoin:round;stroke-miterlimit:4;stroke-dasharray:none;stroke-opacity:1"
         inkscape:original="M -143.46875 22.0625 C -148.34117 22.333191 -145.31047 30.323593 -147.28125 36.9375 C -150.84405 48.894139 -146.02423 44.729342 -142.90625 46.34375 C -139.67227 48.018224 -139.02551 55.280542 -143.5 58.84375 C -149.56052 63.669991 -153.49073 57.799802 -155.65625 53.46875 C -157.82178 49.137699 -161.60517 45.064639 -163.5 49.125 C -165.39484 53.185362 -163.45135 67.687975 -142.9375 68.875 C -122.42365 70.062026 -119.37866 53.605548 -124.03125 51.3125 C -129.95967 56.116781 -126.6565 55.609282 -134.5625 58.90625 C -137.06086 59.948119 -135.37585 36.673947 -137 30.71875 C -138.62413 24.763554 -138.59631 21.791809 -143.46875 22.0625 z "
         inkscape:radius="-1.1979821"
         sodipodi:type="inkscape:offset" />
      <path
         transform="matrix(1.024218,0,0,1.024218,776.5116,360.2022)"
         d="M -147 39.25 A 3.5 8.25 0 1 1  -154,39.25 A 3.5 8.25 0 1 1  -147 39.25 z"
         sodipodi:ry="8.25"
         sodipodi:rx="3.5"
         sodipodi:cy="39.25"
         sodipodi:cx="-150.5"
         id="path6374"
         style="opacity:1;color:black;fill:white;fill-opacity:1;fill-rule:evenodd;stroke:black;stroke-width:1;stroke-linecap:butt;stroke-linejoin:round;marker:none;marker-start:none;marker-mid:none;marker-end:none;stroke-miterlimit:4;stroke-dasharray:none;stroke-dashoffset:0;stroke-opacity:1;visibility:visible;display:inline;overflow:visible"
         sodipodi:type="arc" />
      <path
         transform="matrix(1.024218,0,0,1.024218,784.7054,360.4583)"
         d="M -147 39.25 A 3.5 8.25 0 1 1  -154,39.25 A 3.5 8.25 0 1 1  -147 39.25 z"
         sodipodi:ry="8.25"
         sodipodi:rx="3.5"
         sodipodi:cy="39.25"
         sodipodi:cx="-150.5"
         id="path6376"
         style="opacity:1;color:black;fill:white;fill-opacity:1;fill-rule:evenodd;stroke:black;stroke-width:1;stroke-linecap:butt;stroke-linejoin:round;marker:none;marker-start:none;marker-mid:none;marker-end:none;stroke-miterlimit:4;stroke-dasharray:none;stroke-dashoffset:0;stroke-opacity:1;visibility:visible;display:inline;overflow:visible"
         sodipodi:type="arc" />
      <path
         transform="matrix(1.024218,0,0,1.024218,836.5784,386.6198)"
         d="M -207.5 16.25 A 1.75 3.25 0 1 1  -211,16.25 A 1.75 3.25 0 1 1  -207.5 16.25 z"
         sodipodi:ry="3.25"
         sodipodi:rx="1.75"
         sodipodi:cy="16.25"
         sodipodi:cx="-209.25"
         id="path6378"
         style="opacity:1;color:black;fill:black;fill-opacity:1;fill-rule:evenodd;stroke:none;stroke-width:1;stroke-linecap:butt;stroke-linejoin:round;marker:none;marker-start:none;marker-mid:none;marker-end:none;stroke-miterlimit:4;stroke-dasharray:none;stroke-dashoffset:0;stroke-opacity:1;visibility:visible;display:inline;overflow:visible"
         sodipodi:type="arc" />
      <path
         transform="matrix(1.024218,0,0,1.024218,844.1466,386.2341)"
         d="M -207.5 16.25 A 1.75 3.25 0 1 1  -211,16.25 A 1.75 3.25 0 1 1  -207.5 16.25 z"
         sodipodi:ry="3.25"
         sodipodi:rx="1.75"
         sodipodi:cy="16.25"
         sodipodi:cx="-209.25"
         id="path6380"
         style="opacity:1;color:black;fill:black;fill-opacity:1;fill-rule:evenodd;stroke:none;stroke-width:1;stroke-linecap:butt;stroke-linejoin:round;marker:none;marker-start:none;marker-mid:none;marker-end:none;stroke-miterlimit:4;stroke-dasharray:none;stroke-dashoffset:0;stroke-opacity:1;visibility:visible;display:inline;overflow:visible"
         sodipodi:type="arc" />
      <rect
         inkscape:transform-center-x="9.1308335"
         inkscape:transform-center-y="-7.0205609"
         transform="matrix(0.315807,-0.948824,0.948824,0.315807,0,0)"
         ry="2.5642447"
         y="709.97888"
         x="-205.27396"
         height="16.411144"
         width="9.7441044"
         id="rect6382"
         style="opacity:1;color:black;fill:url(#linearGradient6657);fill-opacity:1;fill-rule:evenodd;stroke:#888a85;stroke-width:0.96703678;stroke-linecap:butt;stroke-linejoin:round;marker:none;marker-start:none;marker-mid:none;marker-end:none;stroke-miterlimit:4;stroke-dasharray:none;stroke-dashoffset:0;stroke-opacity:1;visibility:visible;display:inline;overflow:visible" />
      <rect
         inkscape:transform-center-y="-8.1451744"
         inkscape:transform-center-x="12.62942"
         transform="matrix(0.305963,-0.952043,0.952043,0.305963,0,0)"
         ry="0.85474443"
         y="709.74561"
         x="-210.99113"
         height="5.2994494"
         width="6.3251534"
         id="rect6384"
         style="opacity:1;color:black;fill:#729fcf;fill-opacity:1;fill-rule:evenodd;stroke:#888a85;stroke-width:0.96703923;stroke-linecap:butt;stroke-linejoin:round;marker:none;marker-start:none;marker-mid:none;marker-end:none;stroke-miterlimit:4;stroke-dasharray:none;stroke-dashoffset:0;stroke-opacity:1;visibility:visible;display:inline;overflow:visible" />
      <path
         inkscape:transform-center-y="-5.8408211"
         inkscape:transform-center-x="5.7386238"
         transform="matrix(0.280341,-0.872317,0.872317,0.280341,595.6768,379.1994)"
         d="M -28.637825 39.868271 A 3.1819806 3.1819806 0 1 1  -35.001786,39.868271 A 3.1819806 3.1819806 0 1 1  -28.637825 39.868271 z"
         sodipodi:ry="3.1819806"
         sodipodi:rx="3.1819806"
         sodipodi:cy="39.868271"
         sodipodi:cx="-31.819805"
         id="path6386"
         style="opacity:1;color:black;fill:url(#linearGradient6659);fill-opacity:1;fill-rule:evenodd;stroke:#888a85;stroke-width:1.05542564;stroke-linecap:butt;stroke-linejoin:round;marker:none;marker-start:none;marker-mid:none;marker-end:none;stroke-miterlimit:4;stroke-dasharray:none;stroke-dashoffset:0;stroke-opacity:1;visibility:visible;display:inline;overflow:visible"
         sodipodi:type="arc" />
      <path
         inkscape:transform-center-y="-8.078394"
         inkscape:transform-center-x="13.613217"
         id="path6388"
         d="M 612.00816,417.06081 C 611.89265,417.42024 612.07826,417.78167 612.43771,417.89718 L 614.94076,418.7016 C 614.99542,418.57005 615.05448,418.44654 615.09898,418.30805 C 615.77572,416.20232 615.01015,414.02967 613.3797,413.08941 C 613.29787,413.16607 613.22856,413.2634 613.19168,413.37814 L 612.00816,417.06081 z "
         style="opacity:1;color:black;fill:url(#linearGradient6661);fill-opacity:1;fill-rule:evenodd;stroke:none;stroke-width:1;stroke-linecap:butt;stroke-linejoin:round;marker:none;marker-start:none;marker-mid:none;marker-end:none;stroke-miterlimit:4;stroke-dasharray:none;stroke-dashoffset:0;stroke-opacity:1;visibility:visible;display:inline;overflow:visible" />
      <path
         inkscape:transform-center-y="-5.9331387"
         inkscape:transform-center-x="5.1971516"
         id="path6390"
         d="M 620.51741,416.14392 C 620.69902,416.16379 620.89313,416.21485 621.07377,416.2729 C 622.51902,416.73737 623.31554,418.2883 622.85107,419.73354 C 622.80822,419.86685 622.74295,419.98106 622.68258,420.10284 C 623.06306,419.82726 623.37046,419.43502 623.52512,418.9538 C 623.91153,417.75144 623.23403,416.46897 622.03167,416.08257 C 621.51184,415.91551 620.98978,415.96005 620.51741,416.14392 z "
         style="opacity:1;color:black;fill:url(#linearGradient6663);fill-opacity:1;fill-rule:evenodd;stroke:none;stroke-width:1.05542564;stroke-linecap:butt;stroke-linejoin:round;marker:none;marker-start:none;marker-mid:none;marker-end:none;stroke-miterlimit:4;stroke-dasharray:none;stroke-dashoffset:0;stroke-opacity:1;visibility:visible;display:inline;overflow:visible" />
      <path
         inkscape:transform-center-y="-6.493189"
         inkscape:transform-center-x="5.4534872"
         id="path6392"
         d="M 621.8492,420.04913 L 624.43346,418.26357 L 621.54643,419.67948 L 624.28221,417.51784 L 621.16549,419.46775 L 624.0707,416.77697 L 621.04345,419.08346 L 623.59873,415.81462 L 620.56151,419.12244 L 622.80428,415.36346 L 619.89882,419.17603 L 622.00982,414.91228 L 619.20513,419.59596 L 621.8492,420.04913 z "
         style="fill:none;fill-rule:evenodd;stroke:none;stroke-width:1px;stroke-linecap:butt;stroke-linejoin:miter;stroke-opacity:1" />
      <rect
         inkscape:transform-center-y="-6.9693559"
         inkscape:transform-center-x="9.4023037"
         transform="matrix(0.315807,-0.948824,0.948824,0.315807,0,0)"
         ry="2.3240111"
         y="710.50623"
         x="-204.95184"
         height="14.873644"
         width="8.8312368"
         id="rect6394"
         style="opacity:0.2;color:black;fill:none;fill-opacity:1;fill-rule:evenodd;stroke:url(#linearGradient6665);stroke-width:0.87643713;stroke-linecap:butt;stroke-linejoin:round;marker:none;marker-start:none;marker-mid:none;marker-end:none;stroke-miterlimit:4;stroke-dasharray:none;stroke-dashoffset:0;stroke-opacity:1;visibility:visible;display:inline;overflow:visible" />
      <path
         inkscape:transform-center-y="-4.745821"
         inkscape:transform-center-x="5.7737327"
         sodipodi:nodetypes="cccc"
         id="path6396"
         d="M 620.30652,418.11557 L 621.14725,420.34058 L 622.69158,418.64421 L 620.30652,418.11557 z "
         style="fill:#888a85;fill-opacity:1;fill-rule:evenodd;stroke:none;stroke-width:1px;stroke-linecap:butt;stroke-linejoin:miter;stroke-opacity:1" />
      <path
         inkscape:transform-center-y="-7.010861"
         inkscape:transform-center-x="5.5680642"
         id="path6398"
         d="M 622.8318,418.04785 L 621.92168,415.87822 L 620.57764,417.45886 L 622.8318,418.04785 z "
         style="fill:#888a85;fill-opacity:1;fill-rule:evenodd;stroke:none;stroke-width:1px;stroke-linecap:butt;stroke-linejoin:miter;stroke-opacity:1" />
      <path
         inkscape:transform-center-y="-6.9754661"
         inkscape:transform-center-x="5.5689884"
         transform="matrix(0.234931,-0.575176,0.575176,0.234931,597.925,434.491)"
         d="M 39.53125,23.8125 L 39.875,26.4375 L 41.78125,24.5625 L 39.53125,23.8125 z "
         id="path6400"
         style="opacity:0.5;fill:url(#linearGradient6667);fill-opacity:1;fill-rule:evenodd;stroke:none;stroke-width:1px;stroke-linecap:butt;stroke-linejoin:miter;stroke-opacity:1"
         inkscape:original="M 39.15625 23.375 L 39.65625 27.09375 L 42.34375 24.4375 L 39.15625 23.375 z "
         inkscape:radius="-0.30745935"
         sodipodi:type="inkscape:offset" />
      <path
         inkscape:transform-center-y="-4.787291"
         inkscape:transform-center-x="5.8032865"
         transform="matrix(0.234931,-0.575176,0.575176,0.234931,597.925,434.491)"
         d="M 37.84375,23.90625 L 35.71875,25.90625 L 38.34375,26.84375 L 37.84375,23.90625 z "
         id="path6402"
         style="opacity:0.5;fill:url(#linearGradient6669);fill-opacity:1;fill-rule:evenodd;stroke:none;stroke-width:1px;stroke-linecap:butt;stroke-linejoin:miter;stroke-opacity:1"
         inkscape:original="M 38.03125 23.375 L 35.21875 26 L 38.6875 27.25 L 38.03125 23.375 z "
         inkscape:radius="-0.27569821"
         sodipodi:type="inkscape:offset" />
      <path
         id="path6422"
         d="M 642.54644,426.06483 C 631.72658,426.6562 622.72755,428.39656 617.87847,430.72303 C 620.12687,431.51071 622.80744,432.05871 626.0523,432.24647 C 635.09548,432.76975 640.11925,429.57288 642.54644,426.06483 z "
         style="opacity:0.26451613;fill:white;fill-opacity:1;fill-rule:evenodd;stroke:none;stroke-width:1.09249878;stroke-linecap:butt;stroke-linejoin:round;stroke-miterlimit:4;stroke-dasharray:none;stroke-opacity:1" />
    </g>
  </g>
</svg>
